# xmcd
#
# Track frame offsets: 
#        150
#        900
#        1650
#        2400
#        3150
#        3900
#        4650
#        5400
#        6150
#        6900
#        7650
#        169237
#
# Disc length: 4440 seconds
#
# Revision: 0
# Processed by: cddbd v1.5.1PL0 Copyright (c) Steve Scherf et al.
# Submitted via: ExactAudioCopy v0.95a3
#
DISCID=5311560c
DTITLE=THE BEATLES - LET IT BE...NAKED
DYEAR=2003
DGENRE=Rock
TTITLE0=Get back
TTITLE1=Dig a pony
TTITLE2=FOR YOU BLUE
TTITLE3=The Long and winding road
TTITLE4=Two of us
TTITLE5=I've got a feeling
TTITLE6=One after 909
TTITLE7=Don't let me down
TTITLE8=I me mine
TTITLE9=Across the universe
TTITLE10=Let it be
TTITLE11=CCCD
EXTD=
EXTT0=
EXTT1=
EXTT2=
EXTT3=
EXTT4=
EXTT5=
EXTT6=
EXTT7=
EXTT8=
EXTT9=
EXTT10=
EXTT11=
PLAYORDER=
